<svg xmlns="http://www.w3.org/2000/svg" width="20.622" height="20.195" viewBox="0 0 20.622 20.195">
  <g id="np_log-out_639961_000000" transform="translate(-8.656 -2.996)">
    <path id="Path_3" data-name="Path 3" d="M27.871,17.766c-.1.077-.155.117-.208.163-.494.426-.982.857-1.481,1.275a.47.47,0,0,0-.18.4c-.011,1.01-.028-.353-.053.657a.952.952,0,0,1-1.031,1.039c-.114.006-.228.01-.341.01q-4.741.007-9.483.01c-1.2,0-2.395-.021-3.592-.041a.872.872,0,0,1-.88-.7h0a1.8,1.8,0,0,1-.031-.39c-.014-2.248-.037-2.124-.036-4.373,0-4.04.016-5.708.036-9.748a1.7,1.7,0,0,1,.041-.433c.127-.471.438-.682,1.042-.686,1.744-.017,3.486-.035,5.23-.035q4.02,0,8.04.025a.923.923,0,0,1,1,1.01c.027,1.026.039-.321.062.706a.39.39,0,0,0,.074.266c.571.508,1.153,1,1.767,1.533.008-.08.015-.111.015-.142,0-1.629,0-.886,0-2.515a2.627,2.627,0,0,0-.9-2.01A2.667,2.667,0,0,0,25.046,3c-1.026.023-2.053,0-3.08,0-3.413,0-6.826.013-10.24.009a2.867,2.867,0,0,0-2.015.656A2.779,2.779,0,0,0,8.663,5.827c.008,3.227-.012,4.079-.006,7.305s.031,4.078.037,7.305a2.593,2.593,0,0,0,.877,1.991,2.676,2.676,0,0,0,1.891.762c4.635-.016,9.271-.008,13.906-.012a1.4,1.4,0,0,0,.452-.072,2.843,2.843,0,0,0,2.046-2.837c.014-1.255.006-.137.008-1.391,0-.356,0-.71,0-1.113Z" fill="#464646"/>
    <path id="Path_4" data-name="Path 4" d="M45.127,29.761,39.6,24.987a.505.505,0,0,0-.5-.109.611.611,0,0,0-.491.572c-.033.454-.041.906-.049,1.362s0,.953,0,1.44h-.281l-5.45,0h0a.982.982,0,0,0-1,1V33.07a.964.964,0,0,0,.943.937c1.8,0,3.6-.01,5.4-.01h.366v.352c.009.682.016,1.374.029,2.058h0a2.208,2.208,0,0,0,.044.438.664.664,0,0,0,1.1.368q3.329-2.892,6.656-5.786c.1-.089.195-.185.306-.288-.078-.074-.134-.131-.195-.183-.45-.4-.9-.8-1.354-1.2Z" transform="translate(-17.399 -18.031)" fill="#464646"/>
  </g>
</svg>
